<?xml version="1.0" encoding="UTF-8"?>
<svg xmlns="http://www.w3.org/2000/svg" width="1462.0" height="320"
     viewBox="0 0 1462.0 320" font-family="Consolas, monospace">
<rect width="1462.0" height="320" fill="white"/>
<text x="731.0" y="30" text-anchor="middle" font-size="16" font-weight="bold" fill="#222">Output Backpressure — req Toggle Pattern</text>
<line x1="180.0" y1="50" x2="180.0" y2="260" stroke="#888" stroke-width="0.5" opacity="0.15"/>
<text x="180.0" y="275" text-anchor="middle" font-size="9" fill="#666">0ns</text>
<line x1="186.0" y1="50" x2="186.0" y2="260" stroke="#888" stroke-width="0.5" opacity="0.08"/>
<line x1="192.0" y1="50" x2="192.0" y2="260" stroke="#888" stroke-width="0.5" opacity="0.15"/>
<line x1="198.0" y1="50" x2="198.0" y2="260" stroke="#888" stroke-width="0.5" opacity="0.08"/>
<line x1="204.0" y1="50" x2="204.0" y2="260" stroke="#888" stroke-width="0.5" opacity="0.15"/>
<line x1="210.0" y1="50" x2="210.0" y2="260" stroke="#888" stroke-width="0.5" opacity="0.08"/>
<text x="210.0" y="275" text-anchor="middle" font-size="9" fill="#666">10ns</text>
<line x1="216.0" y1="50" x2="216.0" y2="260" stroke="#888" stroke-width="0.5" opacity="0.15"/>
<line x1="222.0" y1="50" x2="222.0" y2="260" stroke="#888" stroke-width="0.5" opacity="0.08"/>
<line x1="228.0" y1="50" x2="228.0" y2="260" stroke="#888" stroke-width="0.5" opacity="0.15"/>
<line x1="234.0" y1="50" x2="234.0" y2="260" stroke="#888" stroke-width="0.5" opacity="0.08"/>
<line x1="240.0" y1="50" x2="240.0" y2="260" stroke="#888" stroke-width="0.5" opacity="0.15"/>
<text x="240.0" y="275" text-anchor="middle" font-size="9" fill="#666">20ns</text>
<line x1="246.0" y1="50" x2="246.0" y2="260" stroke="#888" stroke-width="0.5" opacity="0.08"/>
<line x1="252.0" y1="50" x2="252.0" y2="260" stroke="#888" stroke-width="0.5" opacity="0.15"/>
<line x1="258.0" y1="50" x2="258.0" y2="260" stroke="#888" stroke-width="0.5" opacity="0.08"/>
<line x1="264.0" y1="50" x2="264.0" y2="260" stroke="#888" stroke-width="0.5" opacity="0.15"/>
<line x1="270.0" y1="50" x2="270.0" y2="260" stroke="#888" stroke-width="0.5" opacity="0.08"/>
<text x="270.0" y="275" text-anchor="middle" font-size="9" fill="#666">30ns</text>
<line x1="276.0" y1="50" x2="276.0" y2="260" stroke="#888" stroke-width="0.5" opacity="0.15"/>
<line x1="282.0" y1="50" x2="282.0" y2="260" stroke="#888" stroke-width="0.5" opacity="0.08"/>
<line x1="288.0" y1="50" x2="288.0" y2="260" stroke="#888" stroke-width="0.5" opacity="0.15"/>
<line x1="294.0" y1="50" x2="294.0" y2="260" stroke="#888" stroke-width="0.5" opacity="0.08"/>
<line x1="300.0" y1="50" x2="300.0" y2="260" stroke="#888" stroke-width="0.5" opacity="0.15"/>
<text x="300.0" y="275" text-anchor="middle" font-size="9" fill="#666">40ns</text>
<line x1="306.0" y1="50" x2="306.0" y2="260" stroke="#888" stroke-width="0.5" opacity="0.08"/>
<line x1="312.0" y1="50" x2="312.0" y2="260" stroke="#888" stroke-width="0.5" opacity="0.15"/>
<line x1="318.0" y1="50" x2="318.0" y2="260" stroke="#888" stroke-width="0.5" opacity="0.08"/>
<line x1="324.0" y1="50" x2="324.0" y2="260" stroke="#888" stroke-width="0.5" opacity="0.15"/>
<line x1="330.0" y1="50" x2="330.0" y2="260" stroke="#888" stroke-width="0.5" opacity="0.08"/>
<text x="330.0" y="275" text-anchor="middle" font-size="9" fill="#666">50ns</text>
<line x1="336.0" y1="50" x2="336.0" y2="260" stroke="#888" stroke-width="0.5" opacity="0.15"/>
<line x1="342.0" y1="50" x2="342.0" y2="260" stroke="#888" stroke-width="0.5" opacity="0.08"/>
<line x1="348.0" y1="50" x2="348.0" y2="260" stroke="#888" stroke-width="0.5" opacity="0.15"/>
<line x1="354.0" y1="50" x2="354.0" y2="260" stroke="#888" stroke-width="0.5" opacity="0.08"/>
<line x1="360.0" y1="50" x2="360.0" y2="260" stroke="#888" stroke-width="0.5" opacity="0.15"/>
<text x="360.0" y="275" text-anchor="middle" font-size="9" fill="#666">60ns</text>
<line x1="366.0" y1="50" x2="366.0" y2="260" stroke="#888" stroke-width="0.5" opacity="0.08"/>
<line x1="372.0" y1="50" x2="372.0" y2="260" stroke="#888" stroke-width="0.5" opacity="0.15"/>
<line x1="378.0" y1="50" x2="378.0" y2="260" stroke="#888" stroke-width="0.5" opacity="0.08"/>
<line x1="384.0" y1="50" x2="384.0" y2="260" stroke="#888" stroke-width="0.5" opacity="0.15"/>
<line x1="390.0" y1="50" x2="390.0" y2="260" stroke="#888" stroke-width="0.5" opacity="0.08"/>
<text x="390.0" y="275" text-anchor="middle" font-size="9" fill="#666">70ns</text>
<line x1="396.0" y1="50" x2="396.0" y2="260" stroke="#888" stroke-width="0.5" opacity="0.15"/>
<line x1="402.0" y1="50" x2="402.0" y2="260" stroke="#888" stroke-width="0.5" opacity="0.08"/>
<line x1="408.0" y1="50" x2="408.0" y2="260" stroke="#888" stroke-width="0.5" opacity="0.15"/>
<line x1="414.0" y1="50" x2="414.0" y2="260" stroke="#888" stroke-width="0.5" opacity="0.08"/>
<line x1="420.0" y1="50" x2="420.0" y2="260" stroke="#888" stroke-width="0.5" opacity="0.15"/>
<text x="420.0" y="275" text-anchor="middle" font-size="9" fill="#666">80ns</text>
<line x1="426.0" y1="50" x2="426.0" y2="260" stroke="#888" stroke-width="0.5" opacity="0.08"/>
<line x1="432.0" y1="50" x2="432.0" y2="260" stroke="#888" stroke-width="0.5" opacity="0.15"/>
<line x1="438.0" y1="50" x2="438.0" y2="260" stroke="#888" stroke-width="0.5" opacity="0.08"/>
<line x1="444.0" y1="50" x2="444.0" y2="260" stroke="#888" stroke-width="0.5" opacity="0.15"/>
<line x1="450.0" y1="50" x2="450.0" y2="260" stroke="#888" stroke-width="0.5" opacity="0.08"/>
<text x="450.0" y="275" text-anchor="middle" font-size="9" fill="#666">90ns</text>
<line x1="456.0" y1="50" x2="456.0" y2="260" stroke="#888" stroke-width="0.5" opacity="0.15"/>
<line x1="462.0" y1="50" x2="462.0" y2="260" stroke="#888" stroke-width="0.5" opacity="0.08"/>
<line x1="468.0" y1="50" x2="468.0" y2="260" stroke="#888" stroke-width="0.5" opacity="0.15"/>
<line x1="474.0" y1="50" x2="474.0" y2="260" stroke="#888" stroke-width="0.5" opacity="0.08"/>
<line x1="480.0" y1="50" x2="480.0" y2="260" stroke="#888" stroke-width="0.5" opacity="0.15"/>
<text x="480.0" y="275" text-anchor="middle" font-size="9" fill="#666">100ns</text>
<line x1="486.0" y1="50" x2="486.0" y2="260" stroke="#888" stroke-width="0.5" opacity="0.08"/>
<line x1="492.0" y1="50" x2="492.0" y2="260" stroke="#888" stroke-width="0.5" opacity="0.15"/>
<line x1="498.0" y1="50" x2="498.0" y2="260" stroke="#888" stroke-width="0.5" opacity="0.08"/>
<line x1="504.0" y1="50" x2="504.0" y2="260" stroke="#888" stroke-width="0.5" opacity="0.15"/>
<line x1="510.0" y1="50" x2="510.0" y2="260" stroke="#888" stroke-width="0.5" opacity="0.08"/>
<text x="510.0" y="275" text-anchor="middle" font-size="9" fill="#666">110ns</text>
<line x1="516.0" y1="50" x2="516.0" y2="260" stroke="#888" stroke-width="0.5" opacity="0.15"/>
<line x1="522.0" y1="50" x2="522.0" y2="260" stroke="#888" stroke-width="0.5" opacity="0.08"/>
<line x1="528.0" y1="50" x2="528.0" y2="260" stroke="#888" stroke-width="0.5" opacity="0.15"/>
<line x1="534.0" y1="50" x2="534.0" y2="260" stroke="#888" stroke-width="0.5" opacity="0.08"/>
<line x1="540.0" y1="50" x2="540.0" y2="260" stroke="#888" stroke-width="0.5" opacity="0.15"/>
<text x="540.0" y="275" text-anchor="middle" font-size="9" fill="#666">120ns</text>
<line x1="546.0" y1="50" x2="546.0" y2="260" stroke="#888" stroke-width="0.5" opacity="0.08"/>
<line x1="552.0" y1="50" x2="552.0" y2="260" stroke="#888" stroke-width="0.5" opacity="0.15"/>
<line x1="558.0" y1="50" x2="558.0" y2="260" stroke="#888" stroke-width="0.5" opacity="0.08"/>
<line x1="564.0" y1="50" x2="564.0" y2="260" stroke="#888" stroke-width="0.5" opacity="0.15"/>
<line x1="570.0" y1="50" x2="570.0" y2="260" stroke="#888" stroke-width="0.5" opacity="0.08"/>
<text x="570.0" y="275" text-anchor="middle" font-size="9" fill="#666">130ns</text>
<line x1="576.0" y1="50" x2="576.0" y2="260" stroke="#888" stroke-width="0.5" opacity="0.15"/>
<line x1="582.0" y1="50" x2="582.0" y2="260" stroke="#888" stroke-width="0.5" opacity="0.08"/>
<line x1="588.0" y1="50" x2="588.0" y2="260" stroke="#888" stroke-width="0.5" opacity="0.15"/>
<line x1="594.0" y1="50" x2="594.0" y2="260" stroke="#888" stroke-width="0.5" opacity="0.08"/>
<line x1="600.0" y1="50" x2="600.0" y2="260" stroke="#888" stroke-width="0.5" opacity="0.15"/>
<text x="600.0" y="275" text-anchor="middle" font-size="9" fill="#666">140ns</text>
<line x1="606.0" y1="50" x2="606.0" y2="260" stroke="#888" stroke-width="0.5" opacity="0.08"/>
<line x1="612.0" y1="50" x2="612.0" y2="260" stroke="#888" stroke-width="0.5" opacity="0.15"/>
<line x1="618.0" y1="50" x2="618.0" y2="260" stroke="#888" stroke-width="0.5" opacity="0.08"/>
<line x1="624.0" y1="50" x2="624.0" y2="260" stroke="#888" stroke-width="0.5" opacity="0.15"/>
<line x1="630.0" y1="50" x2="630.0" y2="260" stroke="#888" stroke-width="0.5" opacity="0.08"/>
<text x="630.0" y="275" text-anchor="middle" font-size="9" fill="#666">150ns</text>
<line x1="636.0" y1="50" x2="636.0" y2="260" stroke="#888" stroke-width="0.5" opacity="0.15"/>
<line x1="642.0" y1="50" x2="642.0" y2="260" stroke="#888" stroke-width="0.5" opacity="0.08"/>
<line x1="648.0" y1="50" x2="648.0" y2="260" stroke="#888" stroke-width="0.5" opacity="0.15"/>
<line x1="654.0" y1="50" x2="654.0" y2="260" stroke="#888" stroke-width="0.5" opacity="0.08"/>
<line x1="660.0" y1="50" x2="660.0" y2="260" stroke="#888" stroke-width="0.5" opacity="0.15"/>
<text x="660.0" y="275" text-anchor="middle" font-size="9" fill="#666">160ns</text>
<line x1="666.0" y1="50" x2="666.0" y2="260" stroke="#888" stroke-width="0.5" opacity="0.08"/>
<line x1="672.0" y1="50" x2="672.0" y2="260" stroke="#888" stroke-width="0.5" opacity="0.15"/>
<line x1="678.0" y1="50" x2="678.0" y2="260" stroke="#888" stroke-width="0.5" opacity="0.08"/>
<line x1="684.0" y1="50" x2="684.0" y2="260" stroke="#888" stroke-width="0.5" opacity="0.15"/>
<line x1="690.0" y1="50" x2="690.0" y2="260" stroke="#888" stroke-width="0.5" opacity="0.08"/>
<text x="690.0" y="275" text-anchor="middle" font-size="9" fill="#666">170ns</text>
<line x1="696.0" y1="50" x2="696.0" y2="260" stroke="#888" stroke-width="0.5" opacity="0.15"/>
<line x1="702.0" y1="50" x2="702.0" y2="260" stroke="#888" stroke-width="0.5" opacity="0.08"/>
<line x1="708.0" y1="50" x2="708.0" y2="260" stroke="#888" stroke-width="0.5" opacity="0.15"/>
<line x1="714.0" y1="50" x2="714.0" y2="260" stroke="#888" stroke-width="0.5" opacity="0.08"/>
<line x1="720.0" y1="50" x2="720.0" y2="260" stroke="#888" stroke-width="0.5" opacity="0.15"/>
<text x="720.0" y="275" text-anchor="middle" font-size="9" fill="#666">180ns</text>
<line x1="726.0" y1="50" x2="726.0" y2="260" stroke="#888" stroke-width="0.5" opacity="0.08"/>
<line x1="732.0" y1="50" x2="732.0" y2="260" stroke="#888" stroke-width="0.5" opacity="0.15"/>
<line x1="738.0" y1="50" x2="738.0" y2="260" stroke="#888" stroke-width="0.5" opacity="0.08"/>
<line x1="744.0" y1="50" x2="744.0" y2="260" stroke="#888" stroke-width="0.5" opacity="0.15"/>
<line x1="750.0" y1="50" x2="750.0" y2="260" stroke="#888" stroke-width="0.5" opacity="0.08"/>
<text x="750.0" y="275" text-anchor="middle" font-size="9" fill="#666">190ns</text>
<line x1="756.0" y1="50" x2="756.0" y2="260" stroke="#888" stroke-width="0.5" opacity="0.15"/>
<line x1="762.0" y1="50" x2="762.0" y2="260" stroke="#888" stroke-width="0.5" opacity="0.08"/>
<line x1="768.0" y1="50" x2="768.0" y2="260" stroke="#888" stroke-width="0.5" opacity="0.15"/>
<line x1="774.0" y1="50" x2="774.0" y2="260" stroke="#888" stroke-width="0.5" opacity="0.08"/>
<line x1="780.0" y1="50" x2="780.0" y2="260" stroke="#888" stroke-width="0.5" opacity="0.15"/>
<text x="780.0" y="275" text-anchor="middle" font-size="9" fill="#666">200ns</text>
<line x1="786.0" y1="50" x2="786.0" y2="260" stroke="#888" stroke-width="0.5" opacity="0.08"/>
<line x1="792.0" y1="50" x2="792.0" y2="260" stroke="#888" stroke-width="0.5" opacity="0.15"/>
<line x1="798.0" y1="50" x2="798.0" y2="260" stroke="#888" stroke-width="0.5" opacity="0.08"/>
<line x1="804.0" y1="50" x2="804.0" y2="260" stroke="#888" stroke-width="0.5" opacity="0.15"/>
<line x1="810.0" y1="50" x2="810.0" y2="260" stroke="#888" stroke-width="0.5" opacity="0.08"/>
<text x="810.0" y="275" text-anchor="middle" font-size="9" fill="#666">210ns</text>
<line x1="816.0" y1="50" x2="816.0" y2="260" stroke="#888" stroke-width="0.5" opacity="0.15"/>
<line x1="822.0" y1="50" x2="822.0" y2="260" stroke="#888" stroke-width="0.5" opacity="0.08"/>
<line x1="828.0" y1="50" x2="828.0" y2="260" stroke="#888" stroke-width="0.5" opacity="0.15"/>
<line x1="834.0" y1="50" x2="834.0" y2="260" stroke="#888" stroke-width="0.5" opacity="0.08"/>
<line x1="840.0" y1="50" x2="840.0" y2="260" stroke="#888" stroke-width="0.5" opacity="0.15"/>
<text x="840.0" y="275" text-anchor="middle" font-size="9" fill="#666">220ns</text>
<line x1="846.0" y1="50" x2="846.0" y2="260" stroke="#888" stroke-width="0.5" opacity="0.08"/>
<line x1="852.0" y1="50" x2="852.0" y2="260" stroke="#888" stroke-width="0.5" opacity="0.15"/>
<line x1="858.0" y1="50" x2="858.0" y2="260" stroke="#888" stroke-width="0.5" opacity="0.08"/>
<line x1="864.0" y1="50" x2="864.0" y2="260" stroke="#888" stroke-width="0.5" opacity="0.15"/>
<line x1="870.0" y1="50" x2="870.0" y2="260" stroke="#888" stroke-width="0.5" opacity="0.08"/>
<text x="870.0" y="275" text-anchor="middle" font-size="9" fill="#666">230ns</text>
<line x1="876.0" y1="50" x2="876.0" y2="260" stroke="#888" stroke-width="0.5" opacity="0.15"/>
<line x1="882.0" y1="50" x2="882.0" y2="260" stroke="#888" stroke-width="0.5" opacity="0.08"/>
<line x1="888.0" y1="50" x2="888.0" y2="260" stroke="#888" stroke-width="0.5" opacity="0.15"/>
<line x1="894.0" y1="50" x2="894.0" y2="260" stroke="#888" stroke-width="0.5" opacity="0.08"/>
<line x1="900.0" y1="50" x2="900.0" y2="260" stroke="#888" stroke-width="0.5" opacity="0.15"/>
<text x="900.0" y="275" text-anchor="middle" font-size="9" fill="#666">240ns</text>
<line x1="906.0" y1="50" x2="906.0" y2="260" stroke="#888" stroke-width="0.5" opacity="0.08"/>
<line x1="912.0" y1="50" x2="912.0" y2="260" stroke="#888" stroke-width="0.5" opacity="0.15"/>
<line x1="918.0" y1="50" x2="918.0" y2="260" stroke="#888" stroke-width="0.5" opacity="0.08"/>
<line x1="924.0" y1="50" x2="924.0" y2="260" stroke="#888" stroke-width="0.5" opacity="0.15"/>
<line x1="930.0" y1="50" x2="930.0" y2="260" stroke="#888" stroke-width="0.5" opacity="0.08"/>
<text x="930.0" y="275" text-anchor="middle" font-size="9" fill="#666">250ns</text>
<line x1="936.0" y1="50" x2="936.0" y2="260" stroke="#888" stroke-width="0.5" opacity="0.15"/>
<line x1="942.0" y1="50" x2="942.0" y2="260" stroke="#888" stroke-width="0.5" opacity="0.08"/>
<line x1="948.0" y1="50" x2="948.0" y2="260" stroke="#888" stroke-width="0.5" opacity="0.15"/>
<line x1="954.0" y1="50" x2="954.0" y2="260" stroke="#888" stroke-width="0.5" opacity="0.08"/>
<line x1="960.0" y1="50" x2="960.0" y2="260" stroke="#888" stroke-width="0.5" opacity="0.15"/>
<text x="960.0" y="275" text-anchor="middle" font-size="9" fill="#666">260ns</text>
<line x1="966.0" y1="50" x2="966.0" y2="260" stroke="#888" stroke-width="0.5" opacity="0.08"/>
<line x1="972.0" y1="50" x2="972.0" y2="260" stroke="#888" stroke-width="0.5" opacity="0.15"/>
<line x1="978.0" y1="50" x2="978.0" y2="260" stroke="#888" stroke-width="0.5" opacity="0.08"/>
<line x1="984.0" y1="50" x2="984.0" y2="260" stroke="#888" stroke-width="0.5" opacity="0.15"/>
<line x1="990.0" y1="50" x2="990.0" y2="260" stroke="#888" stroke-width="0.5" opacity="0.08"/>
<text x="990.0" y="275" text-anchor="middle" font-size="9" fill="#666">270ns</text>
<line x1="996.0" y1="50" x2="996.0" y2="260" stroke="#888" stroke-width="0.5" opacity="0.15"/>
<line x1="1002.0" y1="50" x2="1002.0" y2="260" stroke="#888" stroke-width="0.5" opacity="0.08"/>
<line x1="1008.0" y1="50" x2="1008.0" y2="260" stroke="#888" stroke-width="0.5" opacity="0.15"/>
<line x1="1014.0" y1="50" x2="1014.0" y2="260" stroke="#888" stroke-width="0.5" opacity="0.08"/>
<line x1="1020.0" y1="50" x2="1020.0" y2="260" stroke="#888" stroke-width="0.5" opacity="0.15"/>
<text x="1020.0" y="275" text-anchor="middle" font-size="9" fill="#666">280ns</text>
<line x1="1026.0" y1="50" x2="1026.0" y2="260" stroke="#888" stroke-width="0.5" opacity="0.08"/>
<line x1="1032.0" y1="50" x2="1032.0" y2="260" stroke="#888" stroke-width="0.5" opacity="0.15"/>
<line x1="1038.0" y1="50" x2="1038.0" y2="260" stroke="#888" stroke-width="0.5" opacity="0.08"/>
<line x1="1044.0" y1="50" x2="1044.0" y2="260" stroke="#888" stroke-width="0.5" opacity="0.15"/>
<line x1="1050.0" y1="50" x2="1050.0" y2="260" stroke="#888" stroke-width="0.5" opacity="0.08"/>
<text x="1050.0" y="275" text-anchor="middle" font-size="9" fill="#666">290ns</text>
<line x1="1056.0" y1="50" x2="1056.0" y2="260" stroke="#888" stroke-width="0.5" opacity="0.15"/>
<line x1="1062.0" y1="50" x2="1062.0" y2="260" stroke="#888" stroke-width="0.5" opacity="0.08"/>
<line x1="1068.0" y1="50" x2="1068.0" y2="260" stroke="#888" stroke-width="0.5" opacity="0.15"/>
<line x1="1074.0" y1="50" x2="1074.0" y2="260" stroke="#888" stroke-width="0.5" opacity="0.08"/>
<line x1="1080.0" y1="50" x2="1080.0" y2="260" stroke="#888" stroke-width="0.5" opacity="0.15"/>
<text x="1080.0" y="275" text-anchor="middle" font-size="9" fill="#666">300ns</text>
<line x1="1086.0" y1="50" x2="1086.0" y2="260" stroke="#888" stroke-width="0.5" opacity="0.08"/>
<line x1="1092.0" y1="50" x2="1092.0" y2="260" stroke="#888" stroke-width="0.5" opacity="0.15"/>
<line x1="1098.0" y1="50" x2="1098.0" y2="260" stroke="#888" stroke-width="0.5" opacity="0.08"/>
<line x1="1104.0" y1="50" x2="1104.0" y2="260" stroke="#888" stroke-width="0.5" opacity="0.15"/>
<line x1="1110.0" y1="50" x2="1110.0" y2="260" stroke="#888" stroke-width="0.5" opacity="0.08"/>
<text x="1110.0" y="275" text-anchor="middle" font-size="9" fill="#666">310ns</text>
<line x1="1116.0" y1="50" x2="1116.0" y2="260" stroke="#888" stroke-width="0.5" opacity="0.15"/>
<line x1="1122.0" y1="50" x2="1122.0" y2="260" stroke="#888" stroke-width="0.5" opacity="0.08"/>
<line x1="1128.0" y1="50" x2="1128.0" y2="260" stroke="#888" stroke-width="0.5" opacity="0.15"/>
<line x1="1134.0" y1="50" x2="1134.0" y2="260" stroke="#888" stroke-width="0.5" opacity="0.08"/>
<line x1="1140.0" y1="50" x2="1140.0" y2="260" stroke="#888" stroke-width="0.5" opacity="0.15"/>
<text x="1140.0" y="275" text-anchor="middle" font-size="9" fill="#666">320ns</text>
<line x1="1146.0" y1="50" x2="1146.0" y2="260" stroke="#888" stroke-width="0.5" opacity="0.08"/>
<line x1="1152.0" y1="50" x2="1152.0" y2="260" stroke="#888" stroke-width="0.5" opacity="0.15"/>
<line x1="1158.0" y1="50" x2="1158.0" y2="260" stroke="#888" stroke-width="0.5" opacity="0.08"/>
<line x1="1164.0" y1="50" x2="1164.0" y2="260" stroke="#888" stroke-width="0.5" opacity="0.15"/>
<line x1="1170.0" y1="50" x2="1170.0" y2="260" stroke="#888" stroke-width="0.5" opacity="0.08"/>
<text x="1170.0" y="275" text-anchor="middle" font-size="9" fill="#666">330ns</text>
<line x1="1176.0" y1="50" x2="1176.0" y2="260" stroke="#888" stroke-width="0.5" opacity="0.15"/>
<line x1="1182.0" y1="50" x2="1182.0" y2="260" stroke="#888" stroke-width="0.5" opacity="0.08"/>
<line x1="1188.0" y1="50" x2="1188.0" y2="260" stroke="#888" stroke-width="0.5" opacity="0.15"/>
<line x1="1194.0" y1="50" x2="1194.0" y2="260" stroke="#888" stroke-width="0.5" opacity="0.08"/>
<line x1="1200.0" y1="50" x2="1200.0" y2="260" stroke="#888" stroke-width="0.5" opacity="0.15"/>
<text x="1200.0" y="275" text-anchor="middle" font-size="9" fill="#666">340ns</text>
<line x1="1206.0" y1="50" x2="1206.0" y2="260" stroke="#888" stroke-width="0.5" opacity="0.08"/>
<line x1="1212.0" y1="50" x2="1212.0" y2="260" stroke="#888" stroke-width="0.5" opacity="0.15"/>
<line x1="1218.0" y1="50" x2="1218.0" y2="260" stroke="#888" stroke-width="0.5" opacity="0.08"/>
<line x1="1224.0" y1="50" x2="1224.0" y2="260" stroke="#888" stroke-width="0.5" opacity="0.15"/>
<line x1="1230.0" y1="50" x2="1230.0" y2="260" stroke="#888" stroke-width="0.5" opacity="0.08"/>
<text x="1230.0" y="275" text-anchor="middle" font-size="9" fill="#666">350ns</text>
<line x1="1236.0" y1="50" x2="1236.0" y2="260" stroke="#888" stroke-width="0.5" opacity="0.15"/>
<line x1="1242.0" y1="50" x2="1242.0" y2="260" stroke="#888" stroke-width="0.5" opacity="0.08"/>
<line x1="1248.0" y1="50" x2="1248.0" y2="260" stroke="#888" stroke-width="0.5" opacity="0.15"/>
<line x1="1254.0" y1="50" x2="1254.0" y2="260" stroke="#888" stroke-width="0.5" opacity="0.08"/>
<line x1="1260.0" y1="50" x2="1260.0" y2="260" stroke="#888" stroke-width="0.5" opacity="0.15"/>
<text x="1260.0" y="275" text-anchor="middle" font-size="9" fill="#666">360ns</text>
<line x1="1266.0" y1="50" x2="1266.0" y2="260" stroke="#888" stroke-width="0.5" opacity="0.08"/>
<line x1="1272.0" y1="50" x2="1272.0" y2="260" stroke="#888" stroke-width="0.5" opacity="0.15"/>
<line x1="1278.0" y1="50" x2="1278.0" y2="260" stroke="#888" stroke-width="0.5" opacity="0.08"/>
<line x1="1284.0" y1="50" x2="1284.0" y2="260" stroke="#888" stroke-width="0.5" opacity="0.15"/>
<line x1="1290.0" y1="50" x2="1290.0" y2="260" stroke="#888" stroke-width="0.5" opacity="0.08"/>
<text x="1290.0" y="275" text-anchor="middle" font-size="9" fill="#666">370ns</text>
<line x1="1296.0" y1="50" x2="1296.0" y2="260" stroke="#888" stroke-width="0.5" opacity="0.15"/>
<line x1="1302.0" y1="50" x2="1302.0" y2="260" stroke="#888" stroke-width="0.5" opacity="0.08"/>
<line x1="1308.0" y1="50" x2="1308.0" y2="260" stroke="#888" stroke-width="0.5" opacity="0.15"/>
<line x1="1314.0" y1="50" x2="1314.0" y2="260" stroke="#888" stroke-width="0.5" opacity="0.08"/>
<line x1="1320.0" y1="50" x2="1320.0" y2="260" stroke="#888" stroke-width="0.5" opacity="0.15"/>
<text x="1320.0" y="275" text-anchor="middle" font-size="9" fill="#666">380ns</text>
<line x1="1326.0" y1="50" x2="1326.0" y2="260" stroke="#888" stroke-width="0.5" opacity="0.08"/>
<line x1="1332.0" y1="50" x2="1332.0" y2="260" stroke="#888" stroke-width="0.5" opacity="0.15"/>
<line x1="1338.0" y1="50" x2="1338.0" y2="260" stroke="#888" stroke-width="0.5" opacity="0.08"/>
<line x1="1344.0" y1="50" x2="1344.0" y2="260" stroke="#888" stroke-width="0.5" opacity="0.15"/>
<line x1="1350.0" y1="50" x2="1350.0" y2="260" stroke="#888" stroke-width="0.5" opacity="0.08"/>
<text x="1350.0" y="275" text-anchor="middle" font-size="9" fill="#666">390ns</text>
<line x1="1356.0" y1="50" x2="1356.0" y2="260" stroke="#888" stroke-width="0.5" opacity="0.15"/>
<line x1="1362.0" y1="50" x2="1362.0" y2="260" stroke="#888" stroke-width="0.5" opacity="0.08"/>
<line x1="1368.0" y1="50" x2="1368.0" y2="260" stroke="#888" stroke-width="0.5" opacity="0.15"/>
<line x1="1374.0" y1="50" x2="1374.0" y2="260" stroke="#888" stroke-width="0.5" opacity="0.08"/>
<line x1="1380.0" y1="50" x2="1380.0" y2="260" stroke="#888" stroke-width="0.5" opacity="0.15"/>
<text x="1380.0" y="275" text-anchor="middle" font-size="9" fill="#666">400ns</text>
<line x1="1386.0" y1="50" x2="1386.0" y2="260" stroke="#888" stroke-width="0.5" opacity="0.08"/>
<line x1="1392.0" y1="50" x2="1392.0" y2="260" stroke="#888" stroke-width="0.5" opacity="0.15"/>
<line x1="1398.0" y1="50" x2="1398.0" y2="260" stroke="#888" stroke-width="0.5" opacity="0.08"/>
<line x1="1404.0" y1="50" x2="1404.0" y2="260" stroke="#888" stroke-width="0.5" opacity="0.15"/>
<line x1="1410.0" y1="50" x2="1410.0" y2="260" stroke="#888" stroke-width="0.5" opacity="0.08"/>
<text x="1410.0" y="275" text-anchor="middle" font-size="9" fill="#666">410ns</text>
<line x1="1416.0" y1="50" x2="1416.0" y2="260" stroke="#888" stroke-width="0.5" opacity="0.15"/>
<line x1="1422.0" y1="50" x2="1422.0" y2="260" stroke="#888" stroke-width="0.5" opacity="0.08"/>
<text x="170" y="80" text-anchor="end" font-size="11" font-weight="bold" fill="#333">it_info_vld</text>
<rect x="210.0" y="62" width="6.0" height="28" fill="#16a34a" opacity="0.1"/>
<path d="M 180.0 62 L 210.0 62 L 210.0 90 L 216.0 90 L 216.0 62 L 1422.0 62 L 1422.0 62" fill="none" stroke="#16a34a" stroke-width="2"/>
<text x="170" y="118" text-anchor="end" font-size="11" font-weight="bold" fill="#333">it_data_end</text>
<rect x="480.0" y="100" width="6.0" height="28" fill="#dc2626" opacity="0.1"/>
<path d="M 180.0 100 L 480.0 100 L 480.0 128 L 486.0 128 L 486.0 100 L 1422.0 100 L 1422.0 100" fill="none" stroke="#dc2626" stroke-width="2"/>
<text x="170" y="156" text-anchor="end" font-size="11" font-weight="bold" fill="#333">it_data_out_vld</text>
<rect x="1080.0" y="138" width="102.0" height="28" fill="#ea580c" opacity="0.1"/>
<rect x="1182.0" y="138" width="6.0" height="28" fill="#ea580c" opacity="0.1"/>
<path d="M 180.0 138 L 1080.0 138 L 1080.0 166 L 1182.0 166 L 1182.0 166 L 1188.0 166 L 1188.0 138 L 1422.0 138 L 1422.0 138" fill="none" stroke="#ea580c" stroke-width="2"/>
<text x="170" y="194" text-anchor="end" font-size="11" font-weight="bold" fill="#333">it_data_out_req</text>
<rect x="1134.0" y="174" width="30.0" height="32" fill="#eab308" opacity="0.2"/>
<rect x="180.0" y="176" width="954.0" height="28" fill="#7c3aed" opacity="0.1"/>
<rect x="1164.0" y="176" width="258.0" height="28" fill="#7c3aed" opacity="0.1"/>
<path d="M 180.0 204 L 1134.0 204 L 1134.0 176 L 1164.0 176 L 1164.0 176 L 1164.0 176 L 1164.0 204 L 1422.0 204 L 1422.0 204" fill="none" stroke="#7c3aed" stroke-width="2"/>
<text x="170" y="232" text-anchor="end" font-size="11" font-weight="bold" fill="#333">it_done</text>
<rect x="1272.0" y="214" width="6.0" height="28" fill="#dc2626" opacity="0.1"/>
<path d="M 180.0 214 L 1272.0 214 L 1272.0 242 L 1278.0 242 L 1278.0 214 L 1422.0 214 L 1422.0 214" fill="none" stroke="#dc2626" stroke-width="2"/>
<text x="180" y="285" font-size="10" fill="#555">Yellow highlights: backpressure periods (req=0). Protocol: vld=0 when req=0; data resumes after req=1</text>
</svg>