<?xml version="1.0" encoding="UTF-8"?>
<svg xmlns="http://www.w3.org/2000/svg" width="1996.0" height="434"
     viewBox="0 0 1996.0 434" font-family="Consolas, monospace">
<rect width="1996.0" height="434" fill="white"/>
<text x="998.0" y="30" text-anchor="middle" font-size="16" font-weight="bold" fill="#222">DCT2 4x4 — Basic Transform Flow (2 in, 16 out)</text>
<line x1="180.0" y1="50" x2="180.0" y2="374" stroke="#888" stroke-width="0.5" opacity="0.15"/>
<text x="180.0" y="389" text-anchor="middle" font-size="9" fill="#666">0ns</text>
<line x1="186.0" y1="50" x2="186.0" y2="374" stroke="#888" stroke-width="0.5" opacity="0.08"/>
<line x1="192.0" y1="50" x2="192.0" y2="374" stroke="#888" stroke-width="0.5" opacity="0.15"/>
<line x1="198.0" y1="50" x2="198.0" y2="374" stroke="#888" stroke-width="0.5" opacity="0.08"/>
<line x1="204.0" y1="50" x2="204.0" y2="374" stroke="#888" stroke-width="0.5" opacity="0.15"/>
<line x1="210.0" y1="50" x2="210.0" y2="374" stroke="#888" stroke-width="0.5" opacity="0.08"/>
<text x="210.0" y="389" text-anchor="middle" font-size="9" fill="#666">10ns</text>
<line x1="216.0" y1="50" x2="216.0" y2="374" stroke="#888" stroke-width="0.5" opacity="0.15"/>
<line x1="222.0" y1="50" x2="222.0" y2="374" stroke="#888" stroke-width="0.5" opacity="0.08"/>
<line x1="228.0" y1="50" x2="228.0" y2="374" stroke="#888" stroke-width="0.5" opacity="0.15"/>
<line x1="234.0" y1="50" x2="234.0" y2="374" stroke="#888" stroke-width="0.5" opacity="0.08"/>
<line x1="240.0" y1="50" x2="240.0" y2="374" stroke="#888" stroke-width="0.5" opacity="0.15"/>
<text x="240.0" y="389" text-anchor="middle" font-size="9" fill="#666">20ns</text>
<line x1="246.0" y1="50" x2="246.0" y2="374" stroke="#888" stroke-width="0.5" opacity="0.08"/>
<line x1="252.0" y1="50" x2="252.0" y2="374" stroke="#888" stroke-width="0.5" opacity="0.15"/>
<line x1="258.0" y1="50" x2="258.0" y2="374" stroke="#888" stroke-width="0.5" opacity="0.08"/>
<line x1="264.0" y1="50" x2="264.0" y2="374" stroke="#888" stroke-width="0.5" opacity="0.15"/>
<line x1="270.0" y1="50" x2="270.0" y2="374" stroke="#888" stroke-width="0.5" opacity="0.08"/>
<text x="270.0" y="389" text-anchor="middle" font-size="9" fill="#666">30ns</text>
<line x1="276.0" y1="50" x2="276.0" y2="374" stroke="#888" stroke-width="0.5" opacity="0.15"/>
<line x1="282.0" y1="50" x2="282.0" y2="374" stroke="#888" stroke-width="0.5" opacity="0.08"/>
<line x1="288.0" y1="50" x2="288.0" y2="374" stroke="#888" stroke-width="0.5" opacity="0.15"/>
<line x1="294.0" y1="50" x2="294.0" y2="374" stroke="#888" stroke-width="0.5" opacity="0.08"/>
<line x1="300.0" y1="50" x2="300.0" y2="374" stroke="#888" stroke-width="0.5" opacity="0.15"/>
<text x="300.0" y="389" text-anchor="middle" font-size="9" fill="#666">40ns</text>
<line x1="306.0" y1="50" x2="306.0" y2="374" stroke="#888" stroke-width="0.5" opacity="0.08"/>
<line x1="312.0" y1="50" x2="312.0" y2="374" stroke="#888" stroke-width="0.5" opacity="0.15"/>
<line x1="318.0" y1="50" x2="318.0" y2="374" stroke="#888" stroke-width="0.5" opacity="0.08"/>
<line x1="324.0" y1="50" x2="324.0" y2="374" stroke="#888" stroke-width="0.5" opacity="0.15"/>
<line x1="330.0" y1="50" x2="330.0" y2="374" stroke="#888" stroke-width="0.5" opacity="0.08"/>
<text x="330.0" y="389" text-anchor="middle" font-size="9" fill="#666">50ns</text>
<line x1="336.0" y1="50" x2="336.0" y2="374" stroke="#888" stroke-width="0.5" opacity="0.15"/>
<line x1="342.0" y1="50" x2="342.0" y2="374" stroke="#888" stroke-width="0.5" opacity="0.08"/>
<line x1="348.0" y1="50" x2="348.0" y2="374" stroke="#888" stroke-width="0.5" opacity="0.15"/>
<line x1="354.0" y1="50" x2="354.0" y2="374" stroke="#888" stroke-width="0.5" opacity="0.08"/>
<line x1="360.0" y1="50" x2="360.0" y2="374" stroke="#888" stroke-width="0.5" opacity="0.15"/>
<text x="360.0" y="389" text-anchor="middle" font-size="9" fill="#666">60ns</text>
<line x1="366.0" y1="50" x2="366.0" y2="374" stroke="#888" stroke-width="0.5" opacity="0.08"/>
<line x1="372.0" y1="50" x2="372.0" y2="374" stroke="#888" stroke-width="0.5" opacity="0.15"/>
<line x1="378.0" y1="50" x2="378.0" y2="374" stroke="#888" stroke-width="0.5" opacity="0.08"/>
<line x1="384.0" y1="50" x2="384.0" y2="374" stroke="#888" stroke-width="0.5" opacity="0.15"/>
<line x1="390.0" y1="50" x2="390.0" y2="374" stroke="#888" stroke-width="0.5" opacity="0.08"/>
<text x="390.0" y="389" text-anchor="middle" font-size="9" fill="#666">70ns</text>
<line x1="396.0" y1="50" x2="396.0" y2="374" stroke="#888" stroke-width="0.5" opacity="0.15"/>
<line x1="402.0" y1="50" x2="402.0" y2="374" stroke="#888" stroke-width="0.5" opacity="0.08"/>
<line x1="408.0" y1="50" x2="408.0" y2="374" stroke="#888" stroke-width="0.5" opacity="0.15"/>
<line x1="414.0" y1="50" x2="414.0" y2="374" stroke="#888" stroke-width="0.5" opacity="0.08"/>
<line x1="420.0" y1="50" x2="420.0" y2="374" stroke="#888" stroke-width="0.5" opacity="0.15"/>
<text x="420.0" y="389" text-anchor="middle" font-size="9" fill="#666">80ns</text>
<line x1="426.0" y1="50" x2="426.0" y2="374" stroke="#888" stroke-width="0.5" opacity="0.08"/>
<line x1="432.0" y1="50" x2="432.0" y2="374" stroke="#888" stroke-width="0.5" opacity="0.15"/>
<line x1="438.0" y1="50" x2="438.0" y2="374" stroke="#888" stroke-width="0.5" opacity="0.08"/>
<line x1="444.0" y1="50" x2="444.0" y2="374" stroke="#888" stroke-width="0.5" opacity="0.15"/>
<line x1="450.0" y1="50" x2="450.0" y2="374" stroke="#888" stroke-width="0.5" opacity="0.08"/>
<text x="450.0" y="389" text-anchor="middle" font-size="9" fill="#666">90ns</text>
<line x1="456.0" y1="50" x2="456.0" y2="374" stroke="#888" stroke-width="0.5" opacity="0.15"/>
<line x1="462.0" y1="50" x2="462.0" y2="374" stroke="#888" stroke-width="0.5" opacity="0.08"/>
<line x1="468.0" y1="50" x2="468.0" y2="374" stroke="#888" stroke-width="0.5" opacity="0.15"/>
<line x1="474.0" y1="50" x2="474.0" y2="374" stroke="#888" stroke-width="0.5" opacity="0.08"/>
<line x1="480.0" y1="50" x2="480.0" y2="374" stroke="#888" stroke-width="0.5" opacity="0.15"/>
<text x="480.0" y="389" text-anchor="middle" font-size="9" fill="#666">100ns</text>
<line x1="486.0" y1="50" x2="486.0" y2="374" stroke="#888" stroke-width="0.5" opacity="0.08"/>
<line x1="492.0" y1="50" x2="492.0" y2="374" stroke="#888" stroke-width="0.5" opacity="0.15"/>
<line x1="498.0" y1="50" x2="498.0" y2="374" stroke="#888" stroke-width="0.5" opacity="0.08"/>
<line x1="504.0" y1="50" x2="504.0" y2="374" stroke="#888" stroke-width="0.5" opacity="0.15"/>
<line x1="510.0" y1="50" x2="510.0" y2="374" stroke="#888" stroke-width="0.5" opacity="0.08"/>
<text x="510.0" y="389" text-anchor="middle" font-size="9" fill="#666">110ns</text>
<line x1="516.0" y1="50" x2="516.0" y2="374" stroke="#888" stroke-width="0.5" opacity="0.15"/>
<line x1="522.0" y1="50" x2="522.0" y2="374" stroke="#888" stroke-width="0.5" opacity="0.08"/>
<line x1="528.0" y1="50" x2="528.0" y2="374" stroke="#888" stroke-width="0.5" opacity="0.15"/>
<line x1="534.0" y1="50" x2="534.0" y2="374" stroke="#888" stroke-width="0.5" opacity="0.08"/>
<line x1="540.0" y1="50" x2="540.0" y2="374" stroke="#888" stroke-width="0.5" opacity="0.15"/>
<text x="540.0" y="389" text-anchor="middle" font-size="9" fill="#666">120ns</text>
<line x1="546.0" y1="50" x2="546.0" y2="374" stroke="#888" stroke-width="0.5" opacity="0.08"/>
<line x1="552.0" y1="50" x2="552.0" y2="374" stroke="#888" stroke-width="0.5" opacity="0.15"/>
<line x1="558.0" y1="50" x2="558.0" y2="374" stroke="#888" stroke-width="0.5" opacity="0.08"/>
<line x1="564.0" y1="50" x2="564.0" y2="374" stroke="#888" stroke-width="0.5" opacity="0.15"/>
<line x1="570.0" y1="50" x2="570.0" y2="374" stroke="#888" stroke-width="0.5" opacity="0.08"/>
<text x="570.0" y="389" text-anchor="middle" font-size="9" fill="#666">130ns</text>
<line x1="576.0" y1="50" x2="576.0" y2="374" stroke="#888" stroke-width="0.5" opacity="0.15"/>
<line x1="582.0" y1="50" x2="582.0" y2="374" stroke="#888" stroke-width="0.5" opacity="0.08"/>
<line x1="588.0" y1="50" x2="588.0" y2="374" stroke="#888" stroke-width="0.5" opacity="0.15"/>
<line x1="594.0" y1="50" x2="594.0" y2="374" stroke="#888" stroke-width="0.5" opacity="0.08"/>
<line x1="600.0" y1="50" x2="600.0" y2="374" stroke="#888" stroke-width="0.5" opacity="0.15"/>
<text x="600.0" y="389" text-anchor="middle" font-size="9" fill="#666">140ns</text>
<line x1="606.0" y1="50" x2="606.0" y2="374" stroke="#888" stroke-width="0.5" opacity="0.08"/>
<line x1="612.0" y1="50" x2="612.0" y2="374" stroke="#888" stroke-width="0.5" opacity="0.15"/>
<line x1="618.0" y1="50" x2="618.0" y2="374" stroke="#888" stroke-width="0.5" opacity="0.08"/>
<line x1="624.0" y1="50" x2="624.0" y2="374" stroke="#888" stroke-width="0.5" opacity="0.15"/>
<line x1="630.0" y1="50" x2="630.0" y2="374" stroke="#888" stroke-width="0.5" opacity="0.08"/>
<text x="630.0" y="389" text-anchor="middle" font-size="9" fill="#666">150ns</text>
<line x1="636.0" y1="50" x2="636.0" y2="374" stroke="#888" stroke-width="0.5" opacity="0.15"/>
<line x1="642.0" y1="50" x2="642.0" y2="374" stroke="#888" stroke-width="0.5" opacity="0.08"/>
<line x1="648.0" y1="50" x2="648.0" y2="374" stroke="#888" stroke-width="0.5" opacity="0.15"/>
<line x1="654.0" y1="50" x2="654.0" y2="374" stroke="#888" stroke-width="0.5" opacity="0.08"/>
<line x1="660.0" y1="50" x2="660.0" y2="374" stroke="#888" stroke-width="0.5" opacity="0.15"/>
<text x="660.0" y="389" text-anchor="middle" font-size="9" fill="#666">160ns</text>
<line x1="666.0" y1="50" x2="666.0" y2="374" stroke="#888" stroke-width="0.5" opacity="0.08"/>
<line x1="672.0" y1="50" x2="672.0" y2="374" stroke="#888" stroke-width="0.5" opacity="0.15"/>
<line x1="678.0" y1="50" x2="678.0" y2="374" stroke="#888" stroke-width="0.5" opacity="0.08"/>
<line x1="684.0" y1="50" x2="684.0" y2="374" stroke="#888" stroke-width="0.5" opacity="0.15"/>
<line x1="690.0" y1="50" x2="690.0" y2="374" stroke="#888" stroke-width="0.5" opacity="0.08"/>
<text x="690.0" y="389" text-anchor="middle" font-size="9" fill="#666">170ns</text>
<line x1="696.0" y1="50" x2="696.0" y2="374" stroke="#888" stroke-width="0.5" opacity="0.15"/>
<line x1="702.0" y1="50" x2="702.0" y2="374" stroke="#888" stroke-width="0.5" opacity="0.08"/>
<line x1="708.0" y1="50" x2="708.0" y2="374" stroke="#888" stroke-width="0.5" opacity="0.15"/>
<line x1="714.0" y1="50" x2="714.0" y2="374" stroke="#888" stroke-width="0.5" opacity="0.08"/>
<line x1="720.0" y1="50" x2="720.0" y2="374" stroke="#888" stroke-width="0.5" opacity="0.15"/>
<text x="720.0" y="389" text-anchor="middle" font-size="9" fill="#666">180ns</text>
<line x1="726.0" y1="50" x2="726.0" y2="374" stroke="#888" stroke-width="0.5" opacity="0.08"/>
<line x1="732.0" y1="50" x2="732.0" y2="374" stroke="#888" stroke-width="0.5" opacity="0.15"/>
<line x1="738.0" y1="50" x2="738.0" y2="374" stroke="#888" stroke-width="0.5" opacity="0.08"/>
<line x1="744.0" y1="50" x2="744.0" y2="374" stroke="#888" stroke-width="0.5" opacity="0.15"/>
<line x1="750.0" y1="50" x2="750.0" y2="374" stroke="#888" stroke-width="0.5" opacity="0.08"/>
<text x="750.0" y="389" text-anchor="middle" font-size="9" fill="#666">190ns</text>
<line x1="756.0" y1="50" x2="756.0" y2="374" stroke="#888" stroke-width="0.5" opacity="0.15"/>
<line x1="762.0" y1="50" x2="762.0" y2="374" stroke="#888" stroke-width="0.5" opacity="0.08"/>
<line x1="768.0" y1="50" x2="768.0" y2="374" stroke="#888" stroke-width="0.5" opacity="0.15"/>
<line x1="774.0" y1="50" x2="774.0" y2="374" stroke="#888" stroke-width="0.5" opacity="0.08"/>
<line x1="780.0" y1="50" x2="780.0" y2="374" stroke="#888" stroke-width="0.5" opacity="0.15"/>
<text x="780.0" y="389" text-anchor="middle" font-size="9" fill="#666">200ns</text>
<line x1="786.0" y1="50" x2="786.0" y2="374" stroke="#888" stroke-width="0.5" opacity="0.08"/>
<line x1="792.0" y1="50" x2="792.0" y2="374" stroke="#888" stroke-width="0.5" opacity="0.15"/>
<line x1="798.0" y1="50" x2="798.0" y2="374" stroke="#888" stroke-width="0.5" opacity="0.08"/>
<line x1="804.0" y1="50" x2="804.0" y2="374" stroke="#888" stroke-width="0.5" opacity="0.15"/>
<line x1="810.0" y1="50" x2="810.0" y2="374" stroke="#888" stroke-width="0.5" opacity="0.08"/>
<text x="810.0" y="389" text-anchor="middle" font-size="9" fill="#666">210ns</text>
<line x1="816.0" y1="50" x2="816.0" y2="374" stroke="#888" stroke-width="0.5" opacity="0.15"/>
<line x1="822.0" y1="50" x2="822.0" y2="374" stroke="#888" stroke-width="0.5" opacity="0.08"/>
<line x1="828.0" y1="50" x2="828.0" y2="374" stroke="#888" stroke-width="0.5" opacity="0.15"/>
<line x1="834.0" y1="50" x2="834.0" y2="374" stroke="#888" stroke-width="0.5" opacity="0.08"/>
<line x1="840.0" y1="50" x2="840.0" y2="374" stroke="#888" stroke-width="0.5" opacity="0.15"/>
<text x="840.0" y="389" text-anchor="middle" font-size="9" fill="#666">220ns</text>
<line x1="846.0" y1="50" x2="846.0" y2="374" stroke="#888" stroke-width="0.5" opacity="0.08"/>
<line x1="852.0" y1="50" x2="852.0" y2="374" stroke="#888" stroke-width="0.5" opacity="0.15"/>
<line x1="858.0" y1="50" x2="858.0" y2="374" stroke="#888" stroke-width="0.5" opacity="0.08"/>
<line x1="864.0" y1="50" x2="864.0" y2="374" stroke="#888" stroke-width="0.5" opacity="0.15"/>
<line x1="870.0" y1="50" x2="870.0" y2="374" stroke="#888" stroke-width="0.5" opacity="0.08"/>
<text x="870.0" y="389" text-anchor="middle" font-size="9" fill="#666">230ns</text>
<line x1="876.0" y1="50" x2="876.0" y2="374" stroke="#888" stroke-width="0.5" opacity="0.15"/>
<line x1="882.0" y1="50" x2="882.0" y2="374" stroke="#888" stroke-width="0.5" opacity="0.08"/>
<line x1="888.0" y1="50" x2="888.0" y2="374" stroke="#888" stroke-width="0.5" opacity="0.15"/>
<line x1="894.0" y1="50" x2="894.0" y2="374" stroke="#888" stroke-width="0.5" opacity="0.08"/>
<line x1="900.0" y1="50" x2="900.0" y2="374" stroke="#888" stroke-width="0.5" opacity="0.15"/>
<text x="900.0" y="389" text-anchor="middle" font-size="9" fill="#666">240ns</text>
<line x1="906.0" y1="50" x2="906.0" y2="374" stroke="#888" stroke-width="0.5" opacity="0.08"/>
<line x1="912.0" y1="50" x2="912.0" y2="374" stroke="#888" stroke-width="0.5" opacity="0.15"/>
<line x1="918.0" y1="50" x2="918.0" y2="374" stroke="#888" stroke-width="0.5" opacity="0.08"/>
<line x1="924.0" y1="50" x2="924.0" y2="374" stroke="#888" stroke-width="0.5" opacity="0.15"/>
<line x1="930.0" y1="50" x2="930.0" y2="374" stroke="#888" stroke-width="0.5" opacity="0.08"/>
<text x="930.0" y="389" text-anchor="middle" font-size="9" fill="#666">250ns</text>
<line x1="936.0" y1="50" x2="936.0" y2="374" stroke="#888" stroke-width="0.5" opacity="0.15"/>
<line x1="942.0" y1="50" x2="942.0" y2="374" stroke="#888" stroke-width="0.5" opacity="0.08"/>
<line x1="948.0" y1="50" x2="948.0" y2="374" stroke="#888" stroke-width="0.5" opacity="0.15"/>
<line x1="954.0" y1="50" x2="954.0" y2="374" stroke="#888" stroke-width="0.5" opacity="0.08"/>
<line x1="960.0" y1="50" x2="960.0" y2="374" stroke="#888" stroke-width="0.5" opacity="0.15"/>
<text x="960.0" y="389" text-anchor="middle" font-size="9" fill="#666">260ns</text>
<line x1="966.0" y1="50" x2="966.0" y2="374" stroke="#888" stroke-width="0.5" opacity="0.08"/>
<line x1="972.0" y1="50" x2="972.0" y2="374" stroke="#888" stroke-width="0.5" opacity="0.15"/>
<line x1="978.0" y1="50" x2="978.0" y2="374" stroke="#888" stroke-width="0.5" opacity="0.08"/>
<line x1="984.0" y1="50" x2="984.0" y2="374" stroke="#888" stroke-width="0.5" opacity="0.15"/>
<line x1="990.0" y1="50" x2="990.0" y2="374" stroke="#888" stroke-width="0.5" opacity="0.08"/>
<text x="990.0" y="389" text-anchor="middle" font-size="9" fill="#666">270ns</text>
<line x1="996.0" y1="50" x2="996.0" y2="374" stroke="#888" stroke-width="0.5" opacity="0.15"/>
<line x1="1002.0" y1="50" x2="1002.0" y2="374" stroke="#888" stroke-width="0.5" opacity="0.08"/>
<line x1="1008.0" y1="50" x2="1008.0" y2="374" stroke="#888" stroke-width="0.5" opacity="0.15"/>
<line x1="1014.0" y1="50" x2="1014.0" y2="374" stroke="#888" stroke-width="0.5" opacity="0.08"/>
<line x1="1020.0" y1="50" x2="1020.0" y2="374" stroke="#888" stroke-width="0.5" opacity="0.15"/>
<text x="1020.0" y="389" text-anchor="middle" font-size="9" fill="#666">280ns</text>
<line x1="1026.0" y1="50" x2="1026.0" y2="374" stroke="#888" stroke-width="0.5" opacity="0.08"/>
<line x1="1032.0" y1="50" x2="1032.0" y2="374" stroke="#888" stroke-width="0.5" opacity="0.15"/>
<line x1="1038.0" y1="50" x2="1038.0" y2="374" stroke="#888" stroke-width="0.5" opacity="0.08"/>
<line x1="1044.0" y1="50" x2="1044.0" y2="374" stroke="#888" stroke-width="0.5" opacity="0.15"/>
<line x1="1050.0" y1="50" x2="1050.0" y2="374" stroke="#888" stroke-width="0.5" opacity="0.08"/>
<text x="1050.0" y="389" text-anchor="middle" font-size="9" fill="#666">290ns</text>
<line x1="1056.0" y1="50" x2="1056.0" y2="374" stroke="#888" stroke-width="0.5" opacity="0.15"/>
<line x1="1062.0" y1="50" x2="1062.0" y2="374" stroke="#888" stroke-width="0.5" opacity="0.08"/>
<line x1="1068.0" y1="50" x2="1068.0" y2="374" stroke="#888" stroke-width="0.5" opacity="0.15"/>
<line x1="1074.0" y1="50" x2="1074.0" y2="374" stroke="#888" stroke-width="0.5" opacity="0.08"/>
<line x1="1080.0" y1="50" x2="1080.0" y2="374" stroke="#888" stroke-width="0.5" opacity="0.15"/>
<text x="1080.0" y="389" text-anchor="middle" font-size="9" fill="#666">300ns</text>
<line x1="1086.0" y1="50" x2="1086.0" y2="374" stroke="#888" stroke-width="0.5" opacity="0.08"/>
<line x1="1092.0" y1="50" x2="1092.0" y2="374" stroke="#888" stroke-width="0.5" opacity="0.15"/>
<line x1="1098.0" y1="50" x2="1098.0" y2="374" stroke="#888" stroke-width="0.5" opacity="0.08"/>
<line x1="1104.0" y1="50" x2="1104.0" y2="374" stroke="#888" stroke-width="0.5" opacity="0.15"/>
<line x1="1110.0" y1="50" x2="1110.0" y2="374" stroke="#888" stroke-width="0.5" opacity="0.08"/>
<text x="1110.0" y="389" text-anchor="middle" font-size="9" fill="#666">310ns</text>
<line x1="1116.0" y1="50" x2="1116.0" y2="374" stroke="#888" stroke-width="0.5" opacity="0.15"/>
<line x1="1122.0" y1="50" x2="1122.0" y2="374" stroke="#888" stroke-width="0.5" opacity="0.08"/>
<line x1="1128.0" y1="50" x2="1128.0" y2="374" stroke="#888" stroke-width="0.5" opacity="0.15"/>
<line x1="1134.0" y1="50" x2="1134.0" y2="374" stroke="#888" stroke-width="0.5" opacity="0.08"/>
<line x1="1140.0" y1="50" x2="1140.0" y2="374" stroke="#888" stroke-width="0.5" opacity="0.15"/>
<text x="1140.0" y="389" text-anchor="middle" font-size="9" fill="#666">320ns</text>
<line x1="1146.0" y1="50" x2="1146.0" y2="374" stroke="#888" stroke-width="0.5" opacity="0.08"/>
<line x1="1152.0" y1="50" x2="1152.0" y2="374" stroke="#888" stroke-width="0.5" opacity="0.15"/>
<line x1="1158.0" y1="50" x2="1158.0" y2="374" stroke="#888" stroke-width="0.5" opacity="0.08"/>
<line x1="1164.0" y1="50" x2="1164.0" y2="374" stroke="#888" stroke-width="0.5" opacity="0.15"/>
<line x1="1170.0" y1="50" x2="1170.0" y2="374" stroke="#888" stroke-width="0.5" opacity="0.08"/>
<text x="1170.0" y="389" text-anchor="middle" font-size="9" fill="#666">330ns</text>
<line x1="1176.0" y1="50" x2="1176.0" y2="374" stroke="#888" stroke-width="0.5" opacity="0.15"/>
<line x1="1182.0" y1="50" x2="1182.0" y2="374" stroke="#888" stroke-width="0.5" opacity="0.08"/>
<line x1="1188.0" y1="50" x2="1188.0" y2="374" stroke="#888" stroke-width="0.5" opacity="0.15"/>
<line x1="1194.0" y1="50" x2="1194.0" y2="374" stroke="#888" stroke-width="0.5" opacity="0.08"/>
<line x1="1200.0" y1="50" x2="1200.0" y2="374" stroke="#888" stroke-width="0.5" opacity="0.15"/>
<text x="1200.0" y="389" text-anchor="middle" font-size="9" fill="#666">340ns</text>
<line x1="1206.0" y1="50" x2="1206.0" y2="374" stroke="#888" stroke-width="0.5" opacity="0.08"/>
<line x1="1212.0" y1="50" x2="1212.0" y2="374" stroke="#888" stroke-width="0.5" opacity="0.15"/>
<line x1="1218.0" y1="50" x2="1218.0" y2="374" stroke="#888" stroke-width="0.5" opacity="0.08"/>
<line x1="1224.0" y1="50" x2="1224.0" y2="374" stroke="#888" stroke-width="0.5" opacity="0.15"/>
<line x1="1230.0" y1="50" x2="1230.0" y2="374" stroke="#888" stroke-width="0.5" opacity="0.08"/>
<text x="1230.0" y="389" text-anchor="middle" font-size="9" fill="#666">350ns</text>
<line x1="1236.0" y1="50" x2="1236.0" y2="374" stroke="#888" stroke-width="0.5" opacity="0.15"/>
<line x1="1242.0" y1="50" x2="1242.0" y2="374" stroke="#888" stroke-width="0.5" opacity="0.08"/>
<line x1="1248.0" y1="50" x2="1248.0" y2="374" stroke="#888" stroke-width="0.5" opacity="0.15"/>
<line x1="1254.0" y1="50" x2="1254.0" y2="374" stroke="#888" stroke-width="0.5" opacity="0.08"/>
<line x1="1260.0" y1="50" x2="1260.0" y2="374" stroke="#888" stroke-width="0.5" opacity="0.15"/>
<text x="1260.0" y="389" text-anchor="middle" font-size="9" fill="#666">360ns</text>
<line x1="1266.0" y1="50" x2="1266.0" y2="374" stroke="#888" stroke-width="0.5" opacity="0.08"/>
<line x1="1272.0" y1="50" x2="1272.0" y2="374" stroke="#888" stroke-width="0.5" opacity="0.15"/>
<line x1="1278.0" y1="50" x2="1278.0" y2="374" stroke="#888" stroke-width="0.5" opacity="0.08"/>
<line x1="1284.0" y1="50" x2="1284.0" y2="374" stroke="#888" stroke-width="0.5" opacity="0.15"/>
<line x1="1290.0" y1="50" x2="1290.0" y2="374" stroke="#888" stroke-width="0.5" opacity="0.08"/>
<text x="1290.0" y="389" text-anchor="middle" font-size="9" fill="#666">370ns</text>
<line x1="1296.0" y1="50" x2="1296.0" y2="374" stroke="#888" stroke-width="0.5" opacity="0.15"/>
<line x1="1302.0" y1="50" x2="1302.0" y2="374" stroke="#888" stroke-width="0.5" opacity="0.08"/>
<line x1="1308.0" y1="50" x2="1308.0" y2="374" stroke="#888" stroke-width="0.5" opacity="0.15"/>
<line x1="1314.0" y1="50" x2="1314.0" y2="374" stroke="#888" stroke-width="0.5" opacity="0.08"/>
<line x1="1320.0" y1="50" x2="1320.0" y2="374" stroke="#888" stroke-width="0.5" opacity="0.15"/>
<text x="1320.0" y="389" text-anchor="middle" font-size="9" fill="#666">380ns</text>
<line x1="1326.0" y1="50" x2="1326.0" y2="374" stroke="#888" stroke-width="0.5" opacity="0.08"/>
<line x1="1332.0" y1="50" x2="1332.0" y2="374" stroke="#888" stroke-width="0.5" opacity="0.15"/>
<line x1="1338.0" y1="50" x2="1338.0" y2="374" stroke="#888" stroke-width="0.5" opacity="0.08"/>
<line x1="1344.0" y1="50" x2="1344.0" y2="374" stroke="#888" stroke-width="0.5" opacity="0.15"/>
<line x1="1350.0" y1="50" x2="1350.0" y2="374" stroke="#888" stroke-width="0.5" opacity="0.08"/>
<text x="1350.0" y="389" text-anchor="middle" font-size="9" fill="#666">390ns</text>
<line x1="1356.0" y1="50" x2="1356.0" y2="374" stroke="#888" stroke-width="0.5" opacity="0.15"/>
<line x1="1362.0" y1="50" x2="1362.0" y2="374" stroke="#888" stroke-width="0.5" opacity="0.08"/>
<line x1="1368.0" y1="50" x2="1368.0" y2="374" stroke="#888" stroke-width="0.5" opacity="0.15"/>
<line x1="1374.0" y1="50" x2="1374.0" y2="374" stroke="#888" stroke-width="0.5" opacity="0.08"/>
<line x1="1380.0" y1="50" x2="1380.0" y2="374" stroke="#888" stroke-width="0.5" opacity="0.15"/>
<text x="1380.0" y="389" text-anchor="middle" font-size="9" fill="#666">400ns</text>
<line x1="1386.0" y1="50" x2="1386.0" y2="374" stroke="#888" stroke-width="0.5" opacity="0.08"/>
<line x1="1392.0" y1="50" x2="1392.0" y2="374" stroke="#888" stroke-width="0.5" opacity="0.15"/>
<line x1="1398.0" y1="50" x2="1398.0" y2="374" stroke="#888" stroke-width="0.5" opacity="0.08"/>
<line x1="1404.0" y1="50" x2="1404.0" y2="374" stroke="#888" stroke-width="0.5" opacity="0.15"/>
<line x1="1410.0" y1="50" x2="1410.0" y2="374" stroke="#888" stroke-width="0.5" opacity="0.08"/>
<text x="1410.0" y="389" text-anchor="middle" font-size="9" fill="#666">410ns</text>
<line x1="1416.0" y1="50" x2="1416.0" y2="374" stroke="#888" stroke-width="0.5" opacity="0.15"/>
<line x1="1422.0" y1="50" x2="1422.0" y2="374" stroke="#888" stroke-width="0.5" opacity="0.08"/>
<line x1="1428.0" y1="50" x2="1428.0" y2="374" stroke="#888" stroke-width="0.5" opacity="0.15"/>
<line x1="1434.0" y1="50" x2="1434.0" y2="374" stroke="#888" stroke-width="0.5" opacity="0.08"/>
<line x1="1440.0" y1="50" x2="1440.0" y2="374" stroke="#888" stroke-width="0.5" opacity="0.15"/>
<text x="1440.0" y="389" text-anchor="middle" font-size="9" fill="#666">420ns</text>
<line x1="1446.0" y1="50" x2="1446.0" y2="374" stroke="#888" stroke-width="0.5" opacity="0.08"/>
<line x1="1452.0" y1="50" x2="1452.0" y2="374" stroke="#888" stroke-width="0.5" opacity="0.15"/>
<line x1="1458.0" y1="50" x2="1458.0" y2="374" stroke="#888" stroke-width="0.5" opacity="0.08"/>
<line x1="1464.0" y1="50" x2="1464.0" y2="374" stroke="#888" stroke-width="0.5" opacity="0.15"/>
<line x1="1470.0" y1="50" x2="1470.0" y2="374" stroke="#888" stroke-width="0.5" opacity="0.08"/>
<text x="1470.0" y="389" text-anchor="middle" font-size="9" fill="#666">430ns</text>
<line x1="1476.0" y1="50" x2="1476.0" y2="374" stroke="#888" stroke-width="0.5" opacity="0.15"/>
<line x1="1482.0" y1="50" x2="1482.0" y2="374" stroke="#888" stroke-width="0.5" opacity="0.08"/>
<line x1="1488.0" y1="50" x2="1488.0" y2="374" stroke="#888" stroke-width="0.5" opacity="0.15"/>
<line x1="1494.0" y1="50" x2="1494.0" y2="374" stroke="#888" stroke-width="0.5" opacity="0.08"/>
<line x1="1500.0" y1="50" x2="1500.0" y2="374" stroke="#888" stroke-width="0.5" opacity="0.15"/>
<text x="1500.0" y="389" text-anchor="middle" font-size="9" fill="#666">440ns</text>
<line x1="1506.0" y1="50" x2="1506.0" y2="374" stroke="#888" stroke-width="0.5" opacity="0.08"/>
<line x1="1512.0" y1="50" x2="1512.0" y2="374" stroke="#888" stroke-width="0.5" opacity="0.15"/>
<line x1="1518.0" y1="50" x2="1518.0" y2="374" stroke="#888" stroke-width="0.5" opacity="0.08"/>
<line x1="1524.0" y1="50" x2="1524.0" y2="374" stroke="#888" stroke-width="0.5" opacity="0.15"/>
<line x1="1530.0" y1="50" x2="1530.0" y2="374" stroke="#888" stroke-width="0.5" opacity="0.08"/>
<text x="1530.0" y="389" text-anchor="middle" font-size="9" fill="#666">450ns</text>
<line x1="1536.0" y1="50" x2="1536.0" y2="374" stroke="#888" stroke-width="0.5" opacity="0.15"/>
<line x1="1542.0" y1="50" x2="1542.0" y2="374" stroke="#888" stroke-width="0.5" opacity="0.08"/>
<line x1="1548.0" y1="50" x2="1548.0" y2="374" stroke="#888" stroke-width="0.5" opacity="0.15"/>
<line x1="1554.0" y1="50" x2="1554.0" y2="374" stroke="#888" stroke-width="0.5" opacity="0.08"/>
<line x1="1560.0" y1="50" x2="1560.0" y2="374" stroke="#888" stroke-width="0.5" opacity="0.15"/>
<text x="1560.0" y="389" text-anchor="middle" font-size="9" fill="#666">460ns</text>
<line x1="1566.0" y1="50" x2="1566.0" y2="374" stroke="#888" stroke-width="0.5" opacity="0.08"/>
<line x1="1572.0" y1="50" x2="1572.0" y2="374" stroke="#888" stroke-width="0.5" opacity="0.15"/>
<line x1="1578.0" y1="50" x2="1578.0" y2="374" stroke="#888" stroke-width="0.5" opacity="0.08"/>
<line x1="1584.0" y1="50" x2="1584.0" y2="374" stroke="#888" stroke-width="0.5" opacity="0.15"/>
<line x1="1590.0" y1="50" x2="1590.0" y2="374" stroke="#888" stroke-width="0.5" opacity="0.08"/>
<text x="1590.0" y="389" text-anchor="middle" font-size="9" fill="#666">470ns</text>
<line x1="1596.0" y1="50" x2="1596.0" y2="374" stroke="#888" stroke-width="0.5" opacity="0.15"/>
<line x1="1602.0" y1="50" x2="1602.0" y2="374" stroke="#888" stroke-width="0.5" opacity="0.08"/>
<line x1="1608.0" y1="50" x2="1608.0" y2="374" stroke="#888" stroke-width="0.5" opacity="0.15"/>
<line x1="1614.0" y1="50" x2="1614.0" y2="374" stroke="#888" stroke-width="0.5" opacity="0.08"/>
<line x1="1620.0" y1="50" x2="1620.0" y2="374" stroke="#888" stroke-width="0.5" opacity="0.15"/>
<text x="1620.0" y="389" text-anchor="middle" font-size="9" fill="#666">480ns</text>
<line x1="1626.0" y1="50" x2="1626.0" y2="374" stroke="#888" stroke-width="0.5" opacity="0.08"/>
<line x1="1632.0" y1="50" x2="1632.0" y2="374" stroke="#888" stroke-width="0.5" opacity="0.15"/>
<line x1="1638.0" y1="50" x2="1638.0" y2="374" stroke="#888" stroke-width="0.5" opacity="0.08"/>
<line x1="1644.0" y1="50" x2="1644.0" y2="374" stroke="#888" stroke-width="0.5" opacity="0.15"/>
<line x1="1650.0" y1="50" x2="1650.0" y2="374" stroke="#888" stroke-width="0.5" opacity="0.08"/>
<text x="1650.0" y="389" text-anchor="middle" font-size="9" fill="#666">490ns</text>
<line x1="1656.0" y1="50" x2="1656.0" y2="374" stroke="#888" stroke-width="0.5" opacity="0.15"/>
<line x1="1662.0" y1="50" x2="1662.0" y2="374" stroke="#888" stroke-width="0.5" opacity="0.08"/>
<line x1="1668.0" y1="50" x2="1668.0" y2="374" stroke="#888" stroke-width="0.5" opacity="0.15"/>
<line x1="1674.0" y1="50" x2="1674.0" y2="374" stroke="#888" stroke-width="0.5" opacity="0.08"/>
<line x1="1680.0" y1="50" x2="1680.0" y2="374" stroke="#888" stroke-width="0.5" opacity="0.15"/>
<text x="1680.0" y="389" text-anchor="middle" font-size="9" fill="#666">500ns</text>
<line x1="1686.0" y1="50" x2="1686.0" y2="374" stroke="#888" stroke-width="0.5" opacity="0.08"/>
<line x1="1692.0" y1="50" x2="1692.0" y2="374" stroke="#888" stroke-width="0.5" opacity="0.15"/>
<line x1="1698.0" y1="50" x2="1698.0" y2="374" stroke="#888" stroke-width="0.5" opacity="0.08"/>
<line x1="1704.0" y1="50" x2="1704.0" y2="374" stroke="#888" stroke-width="0.5" opacity="0.15"/>
<line x1="1710.0" y1="50" x2="1710.0" y2="374" stroke="#888" stroke-width="0.5" opacity="0.08"/>
<text x="1710.0" y="389" text-anchor="middle" font-size="9" fill="#666">510ns</text>
<line x1="1716.0" y1="50" x2="1716.0" y2="374" stroke="#888" stroke-width="0.5" opacity="0.15"/>
<line x1="1722.0" y1="50" x2="1722.0" y2="374" stroke="#888" stroke-width="0.5" opacity="0.08"/>
<line x1="1728.0" y1="50" x2="1728.0" y2="374" stroke="#888" stroke-width="0.5" opacity="0.15"/>
<line x1="1734.0" y1="50" x2="1734.0" y2="374" stroke="#888" stroke-width="0.5" opacity="0.08"/>
<line x1="1740.0" y1="50" x2="1740.0" y2="374" stroke="#888" stroke-width="0.5" opacity="0.15"/>
<text x="1740.0" y="389" text-anchor="middle" font-size="9" fill="#666">520ns</text>
<line x1="1746.0" y1="50" x2="1746.0" y2="374" stroke="#888" stroke-width="0.5" opacity="0.08"/>
<line x1="1752.0" y1="50" x2="1752.0" y2="374" stroke="#888" stroke-width="0.5" opacity="0.15"/>
<line x1="1758.0" y1="50" x2="1758.0" y2="374" stroke="#888" stroke-width="0.5" opacity="0.08"/>
<line x1="1764.0" y1="50" x2="1764.0" y2="374" stroke="#888" stroke-width="0.5" opacity="0.15"/>
<line x1="1770.0" y1="50" x2="1770.0" y2="374" stroke="#888" stroke-width="0.5" opacity="0.08"/>
<text x="1770.0" y="389" text-anchor="middle" font-size="9" fill="#666">530ns</text>
<line x1="1776.0" y1="50" x2="1776.0" y2="374" stroke="#888" stroke-width="0.5" opacity="0.15"/>
<line x1="1782.0" y1="50" x2="1782.0" y2="374" stroke="#888" stroke-width="0.5" opacity="0.08"/>
<line x1="1788.0" y1="50" x2="1788.0" y2="374" stroke="#888" stroke-width="0.5" opacity="0.15"/>
<line x1="1794.0" y1="50" x2="1794.0" y2="374" stroke="#888" stroke-width="0.5" opacity="0.08"/>
<line x1="1800.0" y1="50" x2="1800.0" y2="374" stroke="#888" stroke-width="0.5" opacity="0.15"/>
<text x="1800.0" y="389" text-anchor="middle" font-size="9" fill="#666">540ns</text>
<line x1="1806.0" y1="50" x2="1806.0" y2="374" stroke="#888" stroke-width="0.5" opacity="0.08"/>
<line x1="1812.0" y1="50" x2="1812.0" y2="374" stroke="#888" stroke-width="0.5" opacity="0.15"/>
<line x1="1818.0" y1="50" x2="1818.0" y2="374" stroke="#888" stroke-width="0.5" opacity="0.08"/>
<line x1="1824.0" y1="50" x2="1824.0" y2="374" stroke="#888" stroke-width="0.5" opacity="0.15"/>
<line x1="1830.0" y1="50" x2="1830.0" y2="374" stroke="#888" stroke-width="0.5" opacity="0.08"/>
<text x="1830.0" y="389" text-anchor="middle" font-size="9" fill="#666">550ns</text>
<line x1="1836.0" y1="50" x2="1836.0" y2="374" stroke="#888" stroke-width="0.5" opacity="0.15"/>
<line x1="1842.0" y1="50" x2="1842.0" y2="374" stroke="#888" stroke-width="0.5" opacity="0.08"/>
<line x1="1848.0" y1="50" x2="1848.0" y2="374" stroke="#888" stroke-width="0.5" opacity="0.15"/>
<line x1="1854.0" y1="50" x2="1854.0" y2="374" stroke="#888" stroke-width="0.5" opacity="0.08"/>
<line x1="1860.0" y1="50" x2="1860.0" y2="374" stroke="#888" stroke-width="0.5" opacity="0.15"/>
<text x="1860.0" y="389" text-anchor="middle" font-size="9" fill="#666">560ns</text>
<line x1="1866.0" y1="50" x2="1866.0" y2="374" stroke="#888" stroke-width="0.5" opacity="0.08"/>
<line x1="1872.0" y1="50" x2="1872.0" y2="374" stroke="#888" stroke-width="0.5" opacity="0.15"/>
<line x1="1878.0" y1="50" x2="1878.0" y2="374" stroke="#888" stroke-width="0.5" opacity="0.08"/>
<line x1="1884.0" y1="50" x2="1884.0" y2="374" stroke="#888" stroke-width="0.5" opacity="0.15"/>
<line x1="1890.0" y1="50" x2="1890.0" y2="374" stroke="#888" stroke-width="0.5" opacity="0.08"/>
<text x="1890.0" y="389" text-anchor="middle" font-size="9" fill="#666">570ns</text>
<line x1="1896.0" y1="50" x2="1896.0" y2="374" stroke="#888" stroke-width="0.5" opacity="0.15"/>
<line x1="1902.0" y1="50" x2="1902.0" y2="374" stroke="#888" stroke-width="0.5" opacity="0.08"/>
<line x1="1908.0" y1="50" x2="1908.0" y2="374" stroke="#888" stroke-width="0.5" opacity="0.15"/>
<line x1="1914.0" y1="50" x2="1914.0" y2="374" stroke="#888" stroke-width="0.5" opacity="0.08"/>
<line x1="1920.0" y1="50" x2="1920.0" y2="374" stroke="#888" stroke-width="0.5" opacity="0.15"/>
<text x="1920.0" y="389" text-anchor="middle" font-size="9" fill="#666">580ns</text>
<line x1="1926.0" y1="50" x2="1926.0" y2="374" stroke="#888" stroke-width="0.5" opacity="0.08"/>
<line x1="1932.0" y1="50" x2="1932.0" y2="374" stroke="#888" stroke-width="0.5" opacity="0.15"/>
<line x1="1938.0" y1="50" x2="1938.0" y2="374" stroke="#888" stroke-width="0.5" opacity="0.08"/>
<line x1="1944.0" y1="50" x2="1944.0" y2="374" stroke="#888" stroke-width="0.5" opacity="0.15"/>
<line x1="1950.0" y1="50" x2="1950.0" y2="374" stroke="#888" stroke-width="0.5" opacity="0.08"/>
<text x="1950.0" y="389" text-anchor="middle" font-size="9" fill="#666">590ns</text>
<line x1="1956.0" y1="50" x2="1956.0" y2="374" stroke="#888" stroke-width="0.5" opacity="0.15"/>
<text x="170" y="80" text-anchor="end" font-size="11" font-weight="bold" fill="#333">it_info_vld</text>
<rect x="210.0" y="62" width="6.0" height="28" fill="#16a34a" opacity="0.1"/>
<path d="M 180.0 62 L 210.0 62 L 210.0 90 L 216.0 90 L 216.0 62 L 1956.0 62 L 1956.0 62" fill="none" stroke="#16a34a" stroke-width="2"/>
<text x="170" y="118" text-anchor="end" font-size="11" font-weight="bold" fill="#333">it_data_in_vld</text>
<rect x="270.0" y="100" width="6.0" height="28" fill="#2563eb" opacity="0.1"/>
<rect x="282.0" y="100" width="6.0" height="28" fill="#2563eb" opacity="0.1"/>
<path d="M 180.0 100 L 270.0 100 L 270.0 128 L 276.0 128 L 276.0 100 L 282.0 100 L 282.0 128 L 288.0 128 L 288.0 100 L 1956.0 100 L 1956.0 100" fill="none" stroke="#2563eb" stroke-width="2"/>
<text x="170" y="156" text-anchor="end" font-size="11" font-weight="bold" fill="#333">it_data_end</text>
<rect x="324.0" y="138" width="6.0" height="28" fill="#dc2626" opacity="0.1"/>
<path d="M 180.0 138 L 324.0 138 L 324.0 166 L 330.0 166 L 330.0 138 L 1956.0 138 L 1956.0 138" fill="none" stroke="#dc2626" stroke-width="2"/>
<text x="170" y="194" text-anchor="end" font-size="11" font-weight="bold" fill="#333">it_data_in_req</text>
<rect x="180.0" y="176" width="1776.0" height="28" fill="#0891b2" opacity="0.1"/>
<path d="M 180.0 204 L 1956.0 204 L 1956.0 204" fill="none" stroke="#0891b2" stroke-width="2"/>
<text x="170" y="232" text-anchor="end" font-size="11" font-weight="bold" fill="#333">it_data_out_vld</text>
<rect x="1674.0" y="214" width="72.0" height="28" fill="#ea580c" opacity="0.1"/>
<rect x="1746.0" y="214" width="6.0" height="28" fill="#ea580c" opacity="0.1"/>
<path d="M 180.0 214 L 1674.0 214 L 1674.0 242 L 1746.0 242 L 1746.0 242 L 1752.0 242 L 1752.0 214 L 1956.0 214 L 1956.0 214" fill="none" stroke="#ea580c" stroke-width="2"/>
<text x="170" y="270" text-anchor="end" font-size="11" font-weight="bold" fill="#333">it_data_out_req</text>
<rect x="180.0" y="252" width="1776.0" height="28" fill="#7c3aed" opacity="0.1"/>
<path d="M 180.0 280 L 1956.0 280 L 1956.0 280" fill="none" stroke="#7c3aed" stroke-width="2"/>
<text x="170" y="308" text-anchor="end" font-size="11" font-weight="bold" fill="#333">it_done</text>
<rect x="1806.0" y="290" width="6.0" height="28" fill="#dc2626" opacity="0.1"/>
<path d="M 180.0 290 L 1806.0 290 L 1806.0 318 L 1812.0 318 L 1812.0 290 L 1956.0 290 L 1956.0 290" fill="none" stroke="#dc2626" stroke-width="2"/>
<text x="170" y="346" text-anchor="end" font-size="11" font-weight="bold" fill="#333">state</text>
<rect x="180.0" y="330" width="42.0" height="24" fill="#065f46" opacity="0.2" rx="2"/>
<rect x="180.0" y="330" width="42.0" height="24" fill="none" stroke="#065f46" stroke-width="1"/>
<text x="201.0" y="346" text-anchor="middle" font-size="9" font-weight="bold" fill="#065f46">IDLE</text>
<rect x="222.0" y="330" width="402.0" height="24" fill="#065f46" opacity="0.2" rx="2"/>
<rect x="222.0" y="330" width="402.0" height="24" fill="none" stroke="#065f46" stroke-width="1"/>
<text x="423.0" y="346" text-anchor="middle" font-size="9" font-weight="bold" fill="#065f46">CLR</text>
<rect x="624.0" y="330" width="150.0" height="24" fill="#065f46" opacity="0.2" rx="2"/>
<rect x="624.0" y="330" width="150.0" height="24" fill="none" stroke="#065f46" stroke-width="1"/>
<text x="699.0" y="346" text-anchor="middle" font-size="9" font-weight="bold" fill="#065f46">LOAD</text>
<rect x="774.0" y="330" width="600.0" height="24" fill="#065f46" opacity="0.2" rx="2"/>
<rect x="774.0" y="330" width="600.0" height="24" fill="none" stroke="#065f46" stroke-width="1"/>
<text x="1074.0" y="346" text-anchor="middle" font-size="9" font-weight="bold" fill="#065f46">ROW</text>
<rect x="1374.0" y="330" width="300.0" height="24" fill="#065f46" opacity="0.2" rx="2"/>
<rect x="1374.0" y="330" width="300.0" height="24" fill="none" stroke="#065f46" stroke-width="1"/>
<text x="1524.0" y="346" text-anchor="middle" font-size="9" font-weight="bold" fill="#065f46">COL</text>
<rect x="1674.0" y="330" width="126.0" height="24" fill="#065f46" opacity="0.2" rx="2"/>
<rect x="1674.0" y="330" width="126.0" height="24" fill="none" stroke="#065f46" stroke-width="1"/>
<text x="1737.0" y="346" text-anchor="middle" font-size="9" font-weight="bold" fill="#065f46">OUT</text>
<rect x="1800.0" y="330" width="36.0" height="24" fill="#065f46" opacity="0.2" rx="2"/>
<rect x="1800.0" y="330" width="36.0" height="24" fill="none" stroke="#065f46" stroke-width="1"/>
<text x="1818.0" y="346" text-anchor="middle" font-size="9" font-weight="bold" fill="#065f46">DONE</text>
<rect x="1836.0" y="330" width="120.0" height="24" fill="#065f46" opacity="0.2" rx="2"/>
<rect x="1836.0" y="330" width="120.0" height="24" fill="none" stroke="#065f46" stroke-width="1"/>
<text x="1896.0" y="346" text-anchor="middle" font-size="9" font-weight="bold" fill="#065f46">IDLE</text>
<line x1="222.0" y1="354" x2="222.0" y2="354" stroke="#065f46" stroke-width="1.5"/>
<line x1="624.0" y1="354" x2="624.0" y2="354" stroke="#065f46" stroke-width="1.5"/>
<line x1="774.0" y1="354" x2="774.0" y2="354" stroke="#065f46" stroke-width="1.5"/>
<line x1="1374.0" y1="354" x2="1374.0" y2="354" stroke="#065f46" stroke-width="1.5"/>
<line x1="1674.0" y1="354" x2="1674.0" y2="354" stroke="#065f46" stroke-width="1.5"/>
<line x1="1800.0" y1="354" x2="1800.0" y2="354" stroke="#065f46" stroke-width="1.5"/>
<line x1="1836.0" y1="354" x2="1836.0" y2="354" stroke="#065f46" stroke-width="1.5"/>
<text x="180" y="399" font-size="10" fill="#555">State: IDLE→CLEAR(9)→LOAD(1)→ROW(2)→COL(3)→OUT(4)→DONE(7) | 4 MAC parallel | Output: 4 vals/cycle</text>
</svg>